# xmcd
#
# Track frame offsets: 
#        150
#        46075
#        93255
#        120367
#        143955
#
# Disc length: 2475 seconds
#
# Revision: 1
# Processed by: cddbd v1.5.2PL0 Copyright (c) Steve Scherf et al.
# Submitted via: ExactAudioCopyFreeDBPlugin 1.0
#
DISCID=3609a905
DTITLE=Archie Shepp - Blasé
DYEAR=1969
DGENRE=Jazz
TTITLE0=My Angel
TTITLE1=Blasé
TTITLE2=There is a Balm in Gilead
TTITLE3=Sophsticated Lady
TTITLE4=Touareg
EXTD=YEAR: 1969
EXTT0=
EXTT1=
EXTT2=
EXTT3=
EXTT4=
PLAYORDER=
